<svg width="256" height="29" viewBox="0 0 256 29" fill="none" xmlns="http://www.w3.org/2000/svg">
<path fill-rule="evenodd" clip-rule="evenodd" d="M80.774 0.0899658L77.929 4.96697H75.2L74.33 6.40097H77.087L71.018 16.784C69.741 18.992 70.642 21.03 73.08 21.03C74.303 21.03 75.618 20.393 76.933 19.409L76.155 20.743H79.201L83.789 12.856C88.433 7.08897 90.495 7.83597 89.188 10.046L85.268 16.786C83.99 18.996 84.891 21.034 87.329 21.034C89.125 21.034 91.117 19.664 93.022 17.829C93.168 19.686 94.689 21.034 97.112 21.034C100.535 21.034 103.932 18.394 106.428 15.526C106.231 15.123 105.709 14.665 105.302 14.493L105.099 14.719C102.921 17.216 100.135 19.194 98.017 19.194C96.157 19.194 95.053 18.048 96.447 15.639L96.737 15.119C98.683 15.924 102.341 15.55 104.605 11.679L105.042 10.932C106.667 8.17897 105.1 6.11397 102.632 6.11397C100.193 6.11397 98.249 7.37697 96.972 9.55497L94.042 14.52L93.866 14.72C91.689 17.214 89.571 19.192 88.235 19.192C87.569 19.192 87.189 18.732 87.885 17.557L92.24 10.014C93.546 7.74897 92.3 6.11397 90.616 6.11397C89.309 6.11397 87.914 6.83097 86.406 8.37897L91.224 0.0899658H88.205L79.782 14.528L79.612 14.718C77.436 17.214 75.315 19.192 73.979 19.192C73.312 19.192 72.935 18.732 73.633 17.557L80.105 6.39897H82.572L83.444 4.96597H80.948L83.793 0.0909658L80.774 0.0899658ZM48.465 4.96897L51.31 0.0939658H54.329L51.483 4.96697H53.982L53.11 6.40297H50.645L44.169 17.561C43.472 18.736 43.85 19.196 44.517 19.196C45.852 19.196 47.974 17.217 50.15 14.721L50.306 14.545L51.543 12.455L53.023 9.90197C54.765 6.91797 56.563 6.00197 58.885 6.00197C61.731 6.00197 63.414 8.95497 61.586 12.082L58.741 16.928C60.252 16.899 61.935 16.184 63.299 14.721L63.504 14.493C63.91 14.665 64.432 15.122 64.632 15.526C63.092 17.332 60.248 18.422 58.448 18.422H57.782C54.513 22.506 49.166 21.763 49.172 17.961C47.306 19.73 45.369 21.034 43.615 21.034C41.177 21.034 40.276 18.996 41.554 16.787L47.622 6.40397H44.865L45.735 4.96897H48.465ZM59.263 10.967C60.291 9.22497 59.825 8.01997 58.841 7.92997C58.076 7.85997 56.998 8.46597 56.071 10.022L54.62 12.459L52.326 16.387C50.526 19.484 53.983 19.943 55.405 17.533L55.435 17.477C55.26 17.189 55.144 16.844 55.144 16.473C55.144 15.498 55.927 14.694 56.914 14.694H57.059L59.263 10.967ZM102.575 10.936C103.587 9.19197 103.055 8.27497 102.086 8.33197V8.33297C101.334 8.37697 100.317 9.01097 99.554 10.303L97.608 13.66C98.741 14.062 100.688 14.12 102.138 11.682L102.575 10.936ZM146.404 2.86897C144.69 4.38897 144.546 6.08297 145.621 7.45897L145.883 7.80297L145.821 7.88982C144.492 9.7458 142.718 12.2254 140.773 14.487L140.775 14.49L140.572 14.719C139.207 16.18 137.526 16.899 136.014 16.928L138.857 12.08C140.687 8.95397 139.004 5.99997 136.157 5.99997C133.837 5.99997 132.037 6.91797 130.297 9.89997L128.813 12.453L127.575 14.545L127.421 14.721C124.924 17.561 122.778 19.392 120.396 20.397L127.159 8.98297H125.389C125.389 7.74897 124.113 6.11297 122.225 6.11297C120.601 6.11297 118.335 7.37797 117.057 9.55697L112.819 16.784C111.541 18.992 112.441 21.03 114.879 21.03C115.722 21.03 116.739 20.656 117.756 20.026L116.913 21.43C112.849 22.663 110.293 24.298 110.293 26.536C110.293 29.405 114.735 30.007 116.913 26.336L119.205 22.406C121.621 21.663 123.988 20.259 126.445 17.942C126.424 21.759 131.782 22.509 135.055 18.418H135.723C137.523 18.418 140.368 17.329 141.907 15.522C143.356 13.858 144.487 12.367 146.897 9.12697L147.302 9.61597C147.679 10.103 147.827 10.706 147.477 11.307L144.284 16.786C143.004 18.996 143.905 21.032 146.345 21.032C147.875 21.032 149.549 20.037 151.187 18.61C151.137 19.996 152.074 21.032 153.806 21.032C154.646 21.032 155.663 20.659 156.68 20.028L155.838 21.43C151.773 22.663 149.222 24.298 149.222 26.536C149.222 29.405 153.662 30.006 155.838 26.336L158.13 22.406C160.59 21.648 163 20.2 165.507 17.807C165.643 19.675 167.165 21.032 169.597 21.032C172.055 21.032 174.496 19.669 176.601 17.842C176.484 21.747 181.911 22.545 185.213 18.42H185.881C186.826 18.42 188.056 18.112 189.238 17.567C188.425 19.64 189.172 21.032 190.899 21.032C192.555 21.032 194.412 19.54 195.863 18.164C195.573 19.769 196.53 21.032 198.447 21.032C200.943 21.032 203.817 18.395 206.315 15.526L206.313 15.524C207.668 13.9795 208.896 12.3481 209.883 11.0382L209.883 11.038C210.143 10.6925 210.387 10.3693 210.611 10.076C210.211 11.1162 210.017 12.435 209.827 13.7277C209.452 16.2827 209.091 18.736 207.185 18.736C206.169 18.736 205.765 17.646 205.765 17.646L203.875 18.621C203.875 18.621 204.426 21.033 207.185 21.033C207.453 21.033 207.697 21.0074 207.959 20.9798L208.025 20.973C208.04 20.973 208.055 20.9662 208.071 20.9595C208.076 20.957 208.082 20.9545 208.087 20.9523C208.094 20.95 208.1 20.948 208.106 20.9469C208.109 20.9463 208.113 20.946 208.116 20.946C211.192 20.546 214.24 18.136 216.504 15.526C216.331 15.067 215.808 14.608 215.374 14.492L215.171 14.721C214.106 15.9532 212.886 17.0423 211.541 17.961C211.916 16.8472 212.113 15.4997 212.326 14.043C212.657 11.7852 213.025 9.26523 214.155 6.94697L211.891 5.74197C211.66 6.05487 211.379 6.44316 211.056 6.8882L211.056 6.88837C209.633 8.8513 207.41 11.9182 205.185 14.49V14.492L204.982 14.721C202.806 17.217 200.687 19.193 199.351 19.193C198.684 19.193 198.306 18.734 199.004 17.559L205.448 6.40097H202.428L197.058 15.666C194.765 17.73 192.996 18.878 192.414 18.619C191.714 18.3276 192.313 17.3433 192.705 16.6988L192.737 16.6457C192.756 16.6145 192.775 16.5842 192.792 16.555L198.685 6.40297H195.665L190.931 14.495L190.732 14.721C189.368 16.184 187.685 16.901 186.174 16.931L189.019 12.082C190.847 8.95497 189.169 6.00197 186.32 6.00197C183.997 6.00197 182.197 6.91997 180.456 9.90497L178.974 12.455L177.737 14.545L177.582 14.723C175.406 17.219 172.618 19.196 170.499 19.196C168.641 19.196 167.539 18.05 168.932 15.641L169.222 15.123C171.166 15.927 174.826 15.553 177.089 11.68L177.527 10.934C179.15 8.17997 177.585 6.11497 175.117 6.11497C172.677 6.11497 170.73 7.37997 169.454 9.55897L166.528 14.524L166.353 14.721C163.854 17.561 161.708 19.394 159.325 20.399L166.089 8.98297H164.317C164.317 7.74897 163.04 6.11497 161.153 6.11497C159.528 6.11497 157.264 7.37797 155.986 9.55697L153.09 14.494L153.082 14.49L152.879 14.72C150.703 17.215 148.581 19.194 147.245 19.194C146.578 19.194 146.203 18.734 146.899 17.559L149.917 12.339C150.962 10.532 150.468 9.46897 149.48 8.29297L147.797 6.28297C147.362 5.73797 147.362 5.13697 147.972 4.56297L146.404 2.86897ZM136.534 10.967C137.561 9.22497 137.094 8.01897 136.11 7.92897V7.92997C135.346 7.85997 134.27 8.46597 133.342 10.022L131.889 12.459L129.597 16.387C127.797 19.484 131.253 19.943 132.675 17.533L132.703 17.477C132.529 17.189 132.413 16.844 132.413 16.473C132.413 15.498 133.197 14.694 134.183 14.694H134.33L136.534 10.967ZM186.268 7.92897C187.252 8.01897 187.721 9.22497 186.694 10.967L184.488 14.694H184.341C183.355 14.694 182.573 15.498 182.573 16.473C182.573 16.844 182.689 17.189 182.862 17.477L182.832 17.533C181.411 19.943 177.957 19.484 179.757 16.387L182.049 12.459L183.5 10.022C184.427 8.46597 185.503 7.85997 186.268 7.92997V7.92897ZM175.053 10.936C176.065 9.19297 175.536 8.27697 174.568 8.33397V8.33497C173.816 8.37897 172.798 9.01297 172.036 10.305L170.088 13.66C171.221 14.062 173.167 14.12 174.618 11.682L175.053 10.936ZM122.165 8.53497C123.188 8.52897 123.843 9.41897 123.01 10.935L120.718 14.895C118.888 17.792 117.058 19.195 115.78 19.195C115.113 19.195 114.735 18.736 115.431 17.561L119.643 10.305C120.353 9.08797 121.37 8.53997 122.165 8.53497ZM161.933 10.935C162.766 9.41897 162.111 8.52897 161.088 8.53497C160.293 8.53997 159.276 9.08797 158.566 10.305L154.356 17.561C153.662 18.736 154.038 19.195 154.705 19.195C155.981 19.195 157.813 17.792 159.641 14.895L161.933 10.935ZM115.75 23.443L115.749 23.4442C113.459 24.3322 112.732 25.22 112.732 25.994C112.732 26.797 113.748 26.968 114.386 25.85L115.749 23.4442L115.75 23.444V23.443ZM154.674 23.4442L154.675 23.443V23.444L154.674 23.4442ZM154.674 23.4442L153.313 25.85C152.673 26.968 151.657 26.797 151.657 25.994C151.657 25.22 152.383 24.3322 154.674 23.4442ZM0.0250244 11.831H28.947V13.781H0.0250244V11.831ZM255.977 11.831H227.055V13.781H255.977V11.831Z" fill="#766458"/>
</svg>
