<svg width="458" height="214" viewBox="0 0 458 214" fill="none" xmlns="http://www.w3.org/2000/svg">
<path fill-rule="evenodd" clip-rule="evenodd" d="M9.67303 52.1151C9.75003 52.1931 9.78903 52.2701 9.78903 52.3481C9.86703 52.3481 9.94403 52.3861 10.021 52.4641C12.111 54.7861 14.473 56.9541 17.105 58.9671C19.737 60.9021 22.757 61.9471 26.163 62.1021C26.241 62.1021 26.318 62.1421 26.395 62.2191H26.744C26.821 62.2191 26.899 62.2571 26.976 62.3351H28.253C28.641 62.2571 28.989 62.1801 29.299 62.1021C30.54 61.8691 31.7235 61.3959 32.783 60.7091C33.943 60.0121 34.834 59.1601 35.453 58.1541L35.686 57.6891L35.918 57.2251C36.073 56.6831 36.189 56.1801 36.267 55.7151C36.344 55.2511 36.383 54.8251 36.383 54.4381C36.383 52.3481 35.453 50.6061 33.596 49.2121C31.8645 47.7694 29.9011 46.6306 27.789 45.8441C26.9947 45.5509 26.1794 45.3183 25.35 45.1481C24.622 44.9278 23.8862 44.734 23.144 44.5671H22.912C22.834 44.4901 22.757 44.4511 22.68 44.4511C18.9145 43.5335 15.3115 42.0453 11.996 40.0381C8.66603 37.9481 6.38303 34.9671 5.14403 31.0961C4.9014 30.286 4.66905 29.473 4.44703 28.6571C4.28809 27.7732 4.17195 26.8821 4.09903 25.9871C4.0277 25.7214 3.98875 25.4481 3.98303 25.1731V22.3861C4.06003 21.7671 4.17603 21.1481 4.33103 20.5281C4.57144 18.9467 4.96015 17.3915 5.49203 15.8831C6.03403 14.3351 6.73103 12.9411 7.58203 11.7031C10.06 7.59905 13.234 4.65705 17.105 2.87705C21.054 1.09605 25.157 0.206055 29.415 0.206055C30.422 0.206055 31.428 0.283055 32.435 0.438055C33.5225 0.515752 34.6068 0.631824 35.686 0.786055C38.51 1.26107 41.2744 2.03993 43.931 3.10905C46.718 4.19305 49.273 5.47005 51.596 6.94105L45.209 21.2251C43.1246 19.6806 40.9096 18.3208 38.589 17.1611C36.267 15.9991 33.751 15.4191 31.041 15.4191H30.111C28.331 15.6511 26.667 16.4641 25.118 17.8571C23.57 19.1731 22.796 20.6061 22.796 22.1541V22.8511C22.873 23.0831 22.989 23.3151 23.144 23.5481C23.299 24.0901 23.57 24.5931 23.957 25.0581C24.344 25.5221 24.77 25.9481 25.234 26.3351C26.086 27.0321 27.324 27.6901 28.951 28.3091C30.576 28.8511 32.28 29.3931 34.061 29.9351C35.531 30.3221 36.963 30.7091 38.357 31.0961C39.751 31.4061 40.912 31.7161 41.841 32.0261C46.176 33.5741 49.428 36.1671 51.596 39.8061C53.763 43.3671 54.886 47.1611 54.963 51.1861V51.7671C54.963 52.2321 54.925 52.6971 54.847 53.1611V54.4381C54.383 58.4641 53.067 62.2961 50.899 65.9351C48.809 69.5741 45.983 72.3611 42.422 74.2971C41.1002 74.9184 39.7429 75.461 38.357 75.9221C36.973 76.3071 35.5792 76.6559 34.177 76.9681C33.0271 77.1986 31.8633 77.3536 30.693 77.4321C29.5767 77.5837 28.4516 77.6612 27.325 77.6641H26.047C21.402 77.5101 16.835 76.5031 12.344 74.6441C7.85403 72.7091 3.86703 70.1541 0.384033 66.9801L9.67303 52.1151ZM225.567 5.86905C219.219 9.35306 214.264 14.3861 210.703 20.9661L210.702 20.9651C209.679 22.8607 208.824 24.8423 208.147 26.8871C207.462 28.8586 206.919 30.8768 206.522 32.9261C206.289 34.0111 206.134 35.0551 206.057 36.0611C205.98 37.0681 205.941 38.0751 205.941 39.0811C205.941 45.8941 207.799 52.4751 211.515 58.8231C215.231 65.0941 220.341 69.9331 226.844 73.3391C229.212 74.5653 231.704 75.5384 234.276 76.2421C236.864 76.9311 239.506 77.3975 242.173 77.636H243.683C244.222 77.7132 244.765 77.752 245.309 77.7521C252.895 77.7521 260.135 75.7001 267.025 71.5971C273.915 67.4171 278.986 61.5721 282.237 54.0621C282.845 52.5497 283.349 50.9978 283.747 49.4171C284.205 47.8233 284.516 46.1907 284.676 44.5401C284.831 43.7651 284.909 42.9911 284.909 42.2171C284.986 41.3651 285.025 40.5521 285.025 39.7781C285.025 33.3541 283.515 27.1981 280.496 21.3141C277.477 15.3531 273.219 10.5921 267.722 7.03005C265.173 5.40697 262.445 4.08228 259.593 3.08205C256.849 2.08641 254.007 1.38579 251.115 0.992055C250.186 0.914055 249.219 0.837055 248.212 0.759055C247.283 0.682055 246.354 0.643055 245.425 0.643055C238.535 0.643055 231.915 2.38505 225.567 5.86905ZM298.712 75.9501V1.97605H318.222L346.093 39.9501C346.813 41.0751 347.472 42.2381 348.067 43.4341C348.771 44.6084 349.429 45.8092 350.041 47.0341L351.435 50.0541C351.899 51.0601 352.364 52.0271 352.828 52.9561C352.755 52.1378 352.639 51.324 352.48 50.5181C352.403 49.7441 352.325 48.9311 352.248 48.0791C352.09 46.4954 351.974 44.9078 351.899 43.3181C351.819 41.6546 351.78 39.9894 351.783 38.3241V1.97605H371.176V75.9501H351.783L323.68 37.7441C322.906 36.8151 322.17 35.7311 321.474 34.4931C320.77 33.161 320.111 31.8052 319.5 30.4281C319.05 29.4532 318.586 28.4854 318.106 27.5251C317.747 26.5848 317.359 25.6554 316.945 24.7381C317.332 27.1381 317.642 29.5771 317.874 32.0541C318.106 34.5311 318.216 37.0091 318.222 39.4861V75.9501H298.712ZM406.172 1.97605L380.74 75.9501H400.714L404.546 62.5951H433.114L436.83 75.9501H457.036L431.372 1.97605H406.172ZM408.844 48.3111L416.392 23.8081C416.699 22.7335 416.971 21.6489 417.205 20.5561C417.521 19.4451 417.792 18.3219 418.017 17.1891C418.094 17.0341 418.134 16.9181 418.134 16.8401C418.134 16.6861 418.172 16.5311 418.25 16.3761C418.327 15.9111 418.405 15.4851 418.482 15.0981C418.637 14.6341 418.753 14.2081 418.83 13.8211C418.908 14.2081 418.985 14.6341 419.063 15.0981C419.14 15.4861 419.256 15.9111 419.411 16.3761C419.653 17.6594 419.924 18.9371 420.224 20.2081C420.6 21.4117 420.987 22.6117 421.385 23.8081L428.934 48.3111H408.844ZM263.542 47.5591C263.774 46.7851 263.968 45.9721 264.122 45.1201C264.355 44.2691 264.51 43.4171 264.587 42.5651C264.665 42.0241 264.703 41.4821 264.703 40.9401C264.781 40.3981 264.819 39.8941 264.819 39.4301C264.819 38.963 264.78 38.4967 264.703 38.0361V36.6431C264.316 33.3131 263.31 30.1011 261.683 27.0041C260.058 23.9071 257.813 21.5071 254.948 19.8041C254.174 19.4171 253.4 19.0691 252.626 18.7591C251.852 18.4491 251.077 18.1791 250.303 17.9461C249.535 17.7923 248.76 17.6761 247.981 17.5981C247.216 17.4439 246.438 17.3658 245.658 17.3651C241.71 17.3651 238.071 18.6051 234.742 21.0821C231.413 23.5591 229.09 26.8491 227.774 30.9521L227.542 31.4171V31.8811C227.303 32.604 227.109 33.3411 226.962 34.0881C226.807 34.7851 226.652 35.5201 226.497 36.2941L226.265 37.9201V40.3591C226.265 40.5911 226.303 40.8621 226.381 41.1721C226.613 45.2751 227.851 49.1851 230.097 52.9011C232.419 56.5391 235.594 58.9391 239.619 60.1011L241.013 60.5651C241.477 60.6431 241.981 60.7201 242.523 60.7971L243.916 61.0301H245.31C249.413 61.0301 253.09 59.8301 256.342 57.4301C259.671 54.9521 262.071 51.6621 263.542 47.5591ZM169.541 74.092C173.799 73.162 177.747 71.459 181.386 68.982H181.387C185.877 65.73 189.322 61.5501 191.722 56.4401C194.122 51.3301 195.438 46.0271 195.671 40.5301V37.6271C195.671 37.1621 195.632 36.6981 195.554 36.2341C195.245 30.9681 193.89 25.8591 191.49 20.9041C189.09 15.9501 185.722 11.9631 181.387 8.94405C178.023 6.48553 174.189 4.74607 170.123 3.83405C166.097 2.90505 161.993 2.32405 157.813 2.09205C156.652 2.01405 155.452 1.97605 154.213 1.97605H129.129V75.9501H152.935C154.175 75.9501 155.414 75.9114 156.651 75.8341C160.986 75.6021 165.283 75.022 169.541 74.092ZM148.986 59.3431C149.218 59.3431 149.451 59.3821 149.683 59.4591H150.496C150.806 59.4591 151.076 59.4991 151.309 59.5761H154.444C155.296 59.4981 156.109 59.4211 156.883 59.3431C158.887 59.1899 160.87 58.8399 162.805 58.2981C164.741 57.7561 166.483 56.9431 168.031 55.8591C170.509 54.0791 172.328 51.6791 173.489 48.6591C174.721 45.5954 175.352 42.3232 175.347 39.0211V38.0911C175.347 37.7821 175.309 37.4721 175.231 37.1631C175.079 34.23 174.369 31.3528 173.141 28.6851C171.902 25.8981 170.199 23.6921 168.031 22.0651C166.441 20.7671 164.574 19.8534 162.573 19.3951C160.592 18.9243 158.569 18.652 156.534 18.5821H148.986V59.3431ZM69.076 1.97505V75.9491H114.482V59.3431H88.934V46.8011H112.973V31.0071H88.934V18.1171H114.482V1.97505H69.076ZM351.423 198.358C351.31 198.649 351.253 198.941 351.253 199.235C351.253 199.953 351.5 200.504 351.993 200.884C352.488 201.268 353.063 201.458 353.713 201.458C353.689 201.839 353.589 202.176 353.409 202.468C353.23 202.759 353.001 203.016 352.733 203.228C352.466 203.441 352.179 203.621 351.876 203.767C351.572 203.912 351.298 204.029 351.048 204.119L352.398 206.109C352.431 206.093 352.464 206.077 352.496 206.062L352.526 206.048L352.582 206.022C352.644 205.993 352.706 205.966 352.768 205.939C352.974 205.851 353.214 205.731 353.494 205.587C353.802 205.424 354.1 205.244 354.387 205.047C354.689 204.844 354.972 204.613 355.23 204.356C355.783 203.807 356.223 203.154 356.526 202.436C356.83 201.717 356.981 200.928 356.981 200.078C356.981 199.627 356.915 199.201 356.779 198.797C356.644 198.393 356.454 198.045 356.207 197.753C355.916 197.436 355.56 197.196 355.146 197.026C354.73 196.858 354.298 196.774 353.848 196.774C353.443 196.774 353.078 196.848 352.753 196.994C352.443 197.129 352.162 197.323 351.926 197.566C351.703 197.802 351.535 198.065 351.423 198.358ZM359.09 199.235C359.09 198.942 359.147 198.649 359.257 198.358C359.37 198.065 359.539 197.802 359.763 197.566C359.99 197.331 360.263 197.138 360.588 196.994C360.915 196.849 361.278 196.774 361.684 196.774C362.134 196.774 362.567 196.858 362.981 197.026C363.398 197.196 363.751 197.436 364.042 197.753C364.292 198.045 364.482 198.393 364.616 198.797C364.75 199.202 364.818 199.628 364.818 200.078C364.827 200.887 364.672 201.689 364.363 202.436C364.059 203.154 363.618 203.806 363.065 204.356C362.806 204.613 362.523 204.844 362.22 205.047C361.934 205.246 361.636 205.426 361.327 205.587C361.047 205.732 360.807 205.851 360.602 205.939C360.478 205.993 360.354 206.05 360.232 206.109L358.884 204.119C359.131 204.03 359.404 203.912 359.709 203.767C360.013 203.621 360.299 203.441 360.569 203.228C360.837 203.014 361.063 202.761 361.242 202.468C361.423 202.176 361.524 201.84 361.546 201.458C360.924 201.469 360.318 201.266 359.827 200.884C359.337 200.504 359.09 199.953 359.09 199.236V199.235ZM94.36 141.394C94.473 141.103 94.53 140.81 94.53 140.519H94.531C94.531 139.8 94.283 139.251 93.791 138.87C93.297 138.488 92.723 138.298 92.073 138.298C92.096 137.915 92.196 137.577 92.376 137.285C92.556 136.993 92.779 136.74 93.049 136.527C93.319 136.313 93.606 136.134 93.909 135.988C94.1784 135.858 94.4537 135.74 94.734 135.636L93.386 133.648C93.342 133.67 93.219 133.728 93.016 133.815C92.813 133.904 92.571 134.023 92.291 134.167C91.9829 134.329 91.6847 134.51 91.398 134.707C91.0946 134.909 90.8119 135.14 90.554 135.397C90.001 135.947 89.5604 136.599 89.257 137.317C88.954 138.037 88.802 138.825 88.802 139.677C88.7999 140.112 88.8681 140.544 89.004 140.957C89.1262 141.339 89.3207 141.694 89.577 142.002C89.8723 142.319 90.2343 142.567 90.637 142.727C91.0489 142.895 91.4894 142.98 91.934 142.979C92.6564 142.989 93.3513 142.703 93.857 142.187C94.0757 141.959 94.2467 141.689 94.36 141.394ZM86.694 140.519C86.6892 141.141 86.4487 141.738 86.021 142.189C85.7854 142.431 85.5048 142.625 85.195 142.76C84.869 142.906 84.503 142.98 84.099 142.98C83.6541 142.982 83.2131 142.896 82.801 142.728C82.3984 142.567 82.0364 142.319 81.741 142.002C81.484 141.694 81.2894 141.339 81.168 140.957C81.0316 140.544 80.9634 140.112 80.966 139.677C80.966 138.825 81.116 138.037 81.421 137.317C81.7241 136.599 82.1647 135.946 82.718 135.397C82.965 135.149 83.245 134.92 83.561 134.706C83.875 134.494 84.173 134.313 84.454 134.166C84.734 134.022 84.974 133.904 85.178 133.816L85.2347 133.791C85.4036 133.714 85.5094 133.667 85.55 133.646L86.897 135.634C86.649 135.724 86.375 135.842 86.071 135.987C85.768 136.134 85.481 136.313 85.214 136.525C84.9465 136.737 84.7178 136.994 84.538 137.284C84.359 137.576 84.258 137.914 84.236 138.296C84.886 138.296 85.46 138.486 85.954 138.869C86.447 139.251 86.694 139.799 86.694 140.519ZM335.859 197.393H332.044L343.925 176.757H347.701L335.859 197.393ZM331.863 198.881C330.627 198.882 329.682 199.861 329.682 201.099C329.682 202.337 330.628 203.279 331.863 203.279C333.095 203.279 334.08 202.335 334.08 201.099C334.08 199.863 333.095 198.881 331.863 198.881ZM306.601 191.466L305.511 193.354C306.346 195.825 309.65 194.445 310.78 192.483L312.595 189.359C313.94 187.069 310.961 185.398 306.601 191.466ZM330.603 196.334C330.385 195.754 329.731 195.171 329.186 195.027L328.931 195.319C327.602 196.879 326.075 198.258 324.389 199.423C324.859 198.012 325.106 196.304 325.372 194.458C325.784 191.599 326.244 188.409 327.657 185.473L324.822 183.946C324.544 184.328 324.207 184.8 323.821 185.339L323.82 185.339L323.82 185.339C322.043 187.823 319.236 191.743 316.43 195.027C316.436 195.037 316.446 195.045 316.451 195.052C316.445 195.049 316.438 195.045 316.431 195.041C316.423 195.035 316.414 195.03 316.406 195.027L316.153 195.319C313.426 198.479 310.776 200.985 309.103 200.985C308.269 200.985 307.469 200.149 307.469 198.442V196.88C310.121 197.207 312.919 195.462 314.699 192.376L315.715 190.633C319.237 184.603 313.498 182.603 309.647 186.129L315.022 176.792H311.243L300.468 195.487C300.261 195.304 300.029 195.15 299.779 195.03L299.523 195.322C296.8 198.482 293.312 200.988 290.66 200.988C288.335 200.988 286.955 199.535 288.699 196.484L292.583 189.727C294.763 185.985 298.615 186.603 296.361 190.527L295.817 191.471H298.907L299.452 190.527C301.486 187.039 299.523 184.423 296.437 184.423C293.386 184.423 290.95 186.023 289.352 188.783L285.634 195.163C285.614 195.151 285.594 195.139 285.575 195.127C285.515 195.091 285.456 195.055 285.401 195.031L285.146 195.323C282.422 198.483 279.771 200.989 278.099 200.989C277.263 200.989 276.793 200.409 277.663 198.919L285.729 184.786H281.949L275.23 196.52C272.357 199.135 270.145 200.588 269.416 200.262C268.54 199.892 269.289 198.646 269.78 197.83L269.828 197.75L269.865 197.688L269.889 197.647L277.263 184.786H273.485L266.147 197.481C265.641 197.942 264.838 198.373 264.114 198.761C263.67 198.999 263.256 199.221 262.957 199.425C263.428 198.013 263.674 196.305 263.941 194.458V194.458L263.941 194.457C264.353 191.6 264.814 188.41 266.226 185.475L263.394 183.948C261.831 186.091 253.111 197.646 249.696 201.641C250.021 202.113 250.568 202.586 251.112 202.949C253.255 200.479 260.45 191.215 261.794 189.435C261.293 190.753 261.051 192.425 260.814 194.063C260.345 197.3 259.895 200.407 257.506 200.407C256.236 200.407 255.726 199.025 255.726 199.025L253.365 200.261C253.365 200.261 254.055 203.311 257.505 203.311C257.839 203.311 258.141 203.281 258.469 203.248L258.469 203.248L258.561 203.239C258.568 203.239 258.574 203.238 258.581 203.236C258.587 203.234 258.593 203.231 258.599 203.228C258.604 203.226 258.609 203.224 258.614 203.221L258.614 203.221C258.625 203.216 258.635 203.21 258.646 203.207L258.651 203.205L258.654 203.205C258.659 203.204 258.663 203.203 258.667 203.203C260.587 202.949 263.245 202.065 265.027 200.833C265.015 202.37 265.943 203.311 267.527 203.311C269.595 203.311 271.922 201.422 273.737 199.679C273.376 201.714 274.572 203.311 276.972 203.311C279.318 203.311 281.931 201.425 284.409 198.948C284.443 201.458 286.377 203.311 289.535 203.311C292.601 203.311 295.649 201.598 298.276 199.295L296.171 202.949H299.987L304.31 195.429V198.443C304.31 201.675 304.927 203.311 307.98 203.311C311.103 203.311 314.701 199.97 317.825 196.336C317.823 196.333 317.821 196.33 317.818 196.326C317.812 196.319 317.806 196.311 317.805 196.302C317.819 196.314 317.836 196.325 317.852 196.336C319.565 194.362 321.117 192.271 322.355 190.602C322.666 190.183 322.958 189.79 323.227 189.432C322.727 190.75 322.486 192.42 322.249 194.058C321.78 197.296 321.33 200.405 318.94 200.405C317.67 200.405 317.16 199.023 317.16 199.023L314.798 200.259C314.798 200.259 315.489 203.309 318.94 203.309C319.268 203.309 319.566 203.28 319.892 203.247L319.996 203.237C320.012 203.237 320.027 203.23 320.043 203.222C320.062 203.212 320.081 203.202 320.101 203.202C323.954 202.69 327.769 199.64 330.602 196.332L330.603 196.334ZM215.829 195.248H216.012L218.772 190.526C221.06 186.601 217.428 184.821 214.775 189.326L212.959 192.414L210.089 197.391C207.836 201.315 212.16 201.895 213.939 198.845L213.976 198.772C213.758 198.41 213.613 197.975 213.613 197.503C213.613 196.265 214.594 195.248 215.829 195.248ZM190.582 209.379C189.782 210.796 188.51 210.579 188.51 209.563C188.51 208.583 189.419 207.457 192.325 206.329L190.582 209.379ZM155.737 200.952C157.299 200.952 159.552 199.244 161.84 195.649L164.781 190.489C166.635 187.073 162.603 186.166 160.568 189.688L155.301 198.881C154.43 200.372 154.902 200.952 155.737 200.952ZM149.786 180.899C150.912 178.972 152.148 178.137 153.201 178.137C154.619 178.137 155.272 179.081 155.272 180.462C155.272 183.986 150.908 191.295 145.1 190.343H144.337L149.786 180.899ZM242.309 195.285L242.563 194.993L242.564 194.994C243.074 195.212 243.727 195.794 243.982 196.305C240.856 199.938 237.262 203.28 234.136 203.28C231.083 203.28 229.958 200.703 231.556 197.904L236.46 189.366C238.096 186.568 235.516 185.625 229.739 192.855L223.963 202.918H220.148L222.688 198.524C221.002 199.454 219.134 199.974 217.754 199.974H216.919C212.681 205.332 205.653 204.129 206.173 198.852C202.921 202.071 199.807 204.03 196.648 205.024L193.742 210.002C191.02 214.652 185.46 213.888 185.46 210.255C185.46 207.423 188.657 205.314 193.78 203.79L195.851 200.23C194.142 201.754 192.073 203.28 190.256 203.28C188.374 203.28 187.415 201.948 187.868 199.87C185.694 201.86 183.461 203.28 181.428 203.28C178.377 203.28 177.251 200.704 178.849 197.904L183.753 189.37C185.388 186.571 182.808 185.628 177.031 192.858L171.255 202.921H167.441L168.833 200.51C166.891 202.159 164.923 203.283 163.113 203.283C161.189 203.283 160.025 202.268 159.845 200.814C158.028 202.303 156.139 203.283 154.613 203.283C151.938 203.283 150.742 201.302 151.565 198.928L151.341 199.141L151.341 199.141C148.851 201.51 146.988 203.283 142.884 203.283C137.544 203.283 135.983 198.199 138.634 193.621L139.759 191.657C136.709 190.059 135.001 187.152 135.001 184.139C135.001 181.593 136.198 179.017 138.888 177.089L140.123 179.307C138.489 180.577 137.689 182.321 137.689 184.064C137.689 186.172 138.853 188.279 141.069 189.442L146.955 179.305C148.661 176.327 151.132 174.873 153.203 174.873C155.999 174.873 158.216 177.088 158.216 180.503C158.216 181.993 157.743 183.736 156.69 185.589C153.711 190.784 149.133 192.856 145.1 192.856C144.339 192.856 143.648 192.779 142.958 192.672L141.903 194.524C139.653 198.376 141.214 200.955 143.793 200.955C147.468 200.955 149.552 198.538 152.206 195.459L152.353 195.288L152.607 194.996C152.878 195.069 153.175 195.251 153.435 195.484L157.338 188.748C158.934 185.985 161.77 184.388 163.803 184.388C166.274 184.388 167.909 186.604 167.764 188.202H169.907L163.803 198.882C162.932 200.374 163.404 200.954 164.239 200.954C165.912 200.954 168.564 198.447 171.287 195.287L171.541 194.995C171.666 195.053 171.786 195.12 171.9 195.197L177.938 184.752H181.718L180.301 187.221C182.189 185.259 183.897 184.387 185.532 184.387C187.639 184.387 189.201 186.459 187.566 189.329L182.117 198.882C181.246 200.374 181.718 200.954 182.553 200.954C184.225 200.954 186.876 198.447 189.601 195.287L189.855 194.995C189.97 195.049 190.081 195.111 190.186 195.182L196.214 184.752H199.992L192.617 197.612L192.57 197.692L192.506 197.798C192.016 198.616 191.271 199.859 192.145 200.228C192.871 200.554 195.124 199.065 198.031 196.378L204.714 184.752H208.493L198.138 202.482C201.116 201.207 203.768 198.882 206.893 195.287L207.147 194.996C207.266 195.05 207.38 195.114 207.489 195.186L209.109 192.416L210.961 189.183C213.142 185.405 215.393 184.243 218.3 184.243C221.862 184.243 223.968 187.982 221.68 191.944L218.12 198.084C220.009 198.047 222.117 197.137 223.823 195.285L224.078 194.993C224.248 195.073 224.41 195.17 224.56 195.283L230.648 184.75H234.427L233.01 187.219C234.9 185.257 236.605 184.386 238.241 184.386C240.346 184.386 241.912 186.457 240.276 189.327L234.826 198.88C233.955 200.372 234.426 200.952 235.262 200.952C236.934 200.952 239.587 198.445 242.309 195.285ZM361.194 159.421C358.904 163.162 356.579 164.942 354.982 164.942C354.147 164.942 353.675 164.362 354.545 162.872L359.812 153.679C361.847 150.155 365.879 151.064 364.026 154.479H364.061L361.194 159.421ZM318.903 164.942C320.464 164.942 322.717 163.234 325.007 159.64L327.948 154.479C329.8 151.064 325.768 150.155 323.734 153.679L318.466 162.872C317.596 164.362 318.067 164.942 318.903 164.942ZM285.09 173.37C284.293 174.787 283.02 174.57 283.02 173.554C283.02 172.573 283.892 171.447 286.799 170.32L285.09 173.37ZM296.535 142.129C295.48 142.129 294.245 142.963 293.118 144.889L287.67 154.334H288.433C298.06 156.564 302.529 142.129 296.535 142.129ZM370.782 158.986L370.527 159.276C367.807 162.436 365.153 164.943 363.48 164.943C362.645 164.943 362.173 164.363 363.043 162.872L375.832 140.748H372.053L366.496 150.339C365.842 149.285 364.606 148.377 363.043 148.377C361.008 148.377 358.176 149.976 356.577 152.736L352.879 159.116C352.866 159.109 352.853 159.101 352.84 159.093L352.815 159.078C352.757 159.043 352.699 159.008 352.645 158.984L352.39 159.276C349.667 162.436 347.39 164.942 345.718 164.942C344.881 164.942 344.411 164.362 345.28 162.872L350.73 153.317C352.367 150.447 350.802 148.375 348.696 148.375C347.06 148.375 345.356 149.246 343.464 151.21L344.881 148.74H341.102L335.065 159.187C334.95 159.11 334.83 159.042 334.705 158.984L334.449 159.276C331.726 162.436 329.075 164.942 327.403 164.942C326.568 164.942 326.097 164.362 326.967 162.872L333.07 152.19H330.926C331.072 150.592 329.438 148.375 326.966 148.375C324.931 148.375 322.096 149.974 320.498 152.733L316.846 159.039L316.64 159.273C313.918 162.432 310.89 164.938 309.22 164.938C308.383 164.938 307.913 164.358 308.783 162.868L312.561 156.257C313.868 153.967 313.25 152.624 312.016 151.134L309.91 148.59C309.365 147.9 309.365 147.137 310.128 146.41L308.166 144.267C306.022 146.194 305.841 148.336 307.184 150.08L307.513 150.516L307.379 150.705L307.379 150.706C305.721 153.048 303.523 156.153 301.116 158.981C301.128 158.999 301.141 159.016 301.154 159.034C301.167 159.051 301.18 159.068 301.193 159.084C301.249 159.157 301.31 159.229 301.374 159.301C298.261 162.881 295.615 165.196 292.644 166.463L297.439 158.253H293.661L293.262 158.908C291.264 162.432 288.974 164.939 286.032 164.939C283.452 164.939 282.982 162.36 285.232 158.509L286.287 156.657C286.995 156.774 287.711 156.834 288.429 156.838C301.872 156.838 308.375 138.856 296.533 138.856C294.461 138.856 291.989 140.31 290.283 143.288L284.398 153.423C282.182 152.262 281.02 150.155 281.02 148.048C281.02 146.305 281.82 144.56 283.452 143.29L282.219 141.073C279.529 142.999 278.331 145.577 278.331 148.12C278.331 151.136 280.04 154.042 283.091 155.64L281.964 157.603C279.312 162.181 279.784 167.266 285.126 167.266C286.724 167.266 288.067 166.794 289.231 166.066L288.248 167.776C283.128 169.336 279.966 171.407 279.966 174.241C279.966 177.873 285.526 178.637 288.248 173.987L291.155 169.01C295.08 167.775 298.931 165.087 303.073 160.291C303.006 160.165 302.927 160.047 302.837 159.936C304.515 157.965 305.939 156.062 308.787 152.19L309.294 152.809C309.767 153.425 309.948 154.189 309.512 154.953L305.515 161.89C303.916 164.685 305.043 167.264 308.095 167.264C309.994 167.264 312.443 166.025 314.48 164.24C314.436 165.978 315.624 167.264 317.779 167.264C319.304 167.264 321.194 166.284 323.009 164.794C323.192 166.248 324.356 167.264 326.279 167.264C328.089 167.264 330.056 166.139 331.999 164.49L330.607 166.902H334.42L340.197 156.837C345.974 149.608 348.554 150.553 346.917 153.35L342.014 161.888C340.417 164.686 341.541 167.264 344.592 167.264C346.602 167.264 348.428 165.88 350.574 163.931C350.374 165.824 351.578 167.264 353.856 167.264C355.381 167.264 357.27 166.284 359.088 164.794C359.27 166.249 360.433 167.264 362.357 167.264C365.482 167.264 369.077 163.923 372.202 160.288C371.946 159.784 371.293 159.203 370.782 158.986ZM262.281 154.48C264.535 150.556 260.682 149.939 258.502 153.681L256.068 157.931C257.484 158.439 259.919 158.513 261.736 155.424L262.281 154.48ZM255.451 167.268C259.738 167.268 263.991 163.927 267.113 160.293C266.86 159.783 266.205 159.203 265.696 158.985L265.443 159.277C262.717 162.437 259.23 164.943 256.576 164.943C254.251 164.943 252.871 163.49 254.614 160.438L254.977 159.785C257.412 160.801 261.989 160.33 264.823 155.425L265.368 154.481C267.403 150.992 265.441 148.377 262.352 148.377C259.302 148.377 256.868 149.975 255.269 152.736L251.59 159.049C251.552 159.029 251.514 159.001 251.478 158.985L251.223 159.277C248.499 162.437 245.848 164.943 244.176 164.943C243.34 164.943 242.87 164.363 243.739 162.872L249.189 153.317C250.824 150.447 249.261 148.375 247.153 148.375C245.518 148.375 243.774 149.284 241.887 151.246L247.917 140.746H244.139L233.483 159.236C233.348 159.138 233.203 159.053 233.051 158.984L232.796 159.275C230.071 162.436 227.42 164.942 225.748 164.942C224.913 164.942 224.441 164.362 225.311 162.872L233.413 148.738H236.503L237.593 146.921H234.468L238.028 140.746H234.25L230.69 146.921H227.275L226.185 148.738H229.635L222.042 161.891C220.444 164.69 221.57 167.268 224.621 167.268C226.499 167.268 228.547 166.055 230.561 164.304L229.062 166.904H232.877L238.617 156.912C244.43 149.61 247.01 150.555 245.375 153.352L240.47 161.89C238.872 164.688 239.998 167.266 243.05 167.266C245.346 167.266 247.896 165.461 250.326 163.061C250.436 165.492 252.359 167.268 255.451 167.268ZM131.756 154.479C134.01 150.555 130.16 149.938 127.98 153.68L125.545 157.929C126.961 158.438 129.397 158.511 131.212 155.423L131.756 154.479ZM151.099 162.871L156.367 153.68C158.401 150.154 162.434 151.063 160.58 154.479L157.638 159.638C155.35 163.233 153.095 164.942 151.534 164.942C150.7 164.942 150.227 164.361 151.099 162.872V162.871ZM208.859 154.479C211.113 150.555 207.263 149.938 205.083 153.68L202.648 157.929C204.064 158.437 206.499 158.511 208.314 155.423L208.859 154.479ZM147.275 163.206C146.648 165.446 147.845 167.266 150.409 167.266C151.934 167.266 153.824 166.286 155.639 164.797C155.822 166.25 156.985 167.267 158.909 167.267C160.922 167.267 163.127 165.877 165.278 163.921C164.86 165.963 165.817 167.267 167.678 167.267C169.751 167.267 172.076 165.377 173.891 163.633C173.527 165.669 174.728 167.267 177.125 167.267C180.25 167.267 183.845 163.925 186.97 160.291C186.955 160.262 186.935 160.232 186.914 160.203C186.899 160.182 186.883 160.161 186.87 160.14C188.51 158.232 189.998 156.233 191.2 154.618L191.2 154.618L191.2 154.617L191.201 154.617L191.201 154.616C191.529 154.175 191.836 153.764 192.118 153.39C191.617 154.708 191.375 156.379 191.138 158.018V158.018C190.669 161.254 190.219 164.362 187.83 164.362C186.56 164.362 186.05 162.98 186.05 162.98L183.687 164.215C183.687 164.215 184.377 167.267 187.829 167.267C188.153 167.267 188.447 167.238 188.766 167.206L188.883 167.194C188.902 167.194 188.92 167.185 188.938 167.176C188.956 167.168 188.973 167.159 188.991 167.159C191.767 166.792 194.52 165.103 196.904 162.95C196.962 165.436 198.89 167.267 202.029 167.267C206.316 167.267 210.567 163.926 213.691 160.291C213.437 159.781 212.783 159.201 212.275 158.983L212.021 159.275C209.296 162.435 205.808 164.942 203.158 164.942C200.832 164.942 199.451 163.488 201.195 160.437L201.559 159.783C203.991 160.799 208.569 160.328 211.404 155.423L211.949 154.48C213.983 150.991 212.021 148.376 208.934 148.376C205.884 148.376 203.447 149.974 201.851 152.734L198.181 159.028C198.176 159.026 198.17 159.024 198.165 159.022C198.16 159.02 198.156 159.018 198.152 159.016L198.133 159.006L198.133 159.006C198.122 159.001 198.112 158.995 198.101 158.991C198.093 158.987 198.085 158.984 198.077 158.982L197.823 159.273C196.494 160.833 194.967 162.214 193.281 163.379C193.752 161.967 193.999 160.259 194.265 158.412C194.678 155.554 195.139 152.364 196.551 149.428L193.718 147.902C193.434 148.292 193.089 148.774 192.693 149.326L192.693 149.326C190.914 151.811 188.12 155.713 185.325 158.982C185.344 159.008 185.365 159.034 185.387 159.06C185.403 159.08 185.42 159.1 185.435 159.12L185.3 159.273C182.576 162.433 179.924 164.94 178.252 164.94C177.417 164.94 176.945 164.36 177.816 162.87L185.881 148.735H182.102L175.382 160.469C172.512 163.085 170.297 164.538 169.568 164.211C168.692 163.842 169.443 162.593 169.934 161.776L169.935 161.774L169.944 161.759C169.965 161.726 169.984 161.693 170.003 161.661C170.016 161.639 170.029 161.617 170.042 161.596L177.415 148.736H173.637L167.624 159.141L167.59 159.12C167.504 159.067 167.418 159.015 167.337 158.98L167.083 159.27C164.358 162.43 161.707 164.937 160.035 164.937C159.2 164.937 158.728 164.357 159.599 162.867L165.702 152.185H163.558C163.704 150.587 162.07 148.369 159.598 148.369C157.564 148.369 154.73 149.969 153.132 152.729L149.302 159.341C149.126 159.197 148.932 159.075 148.726 158.978L148.472 159.268C145.748 162.428 142.614 164.935 139.962 164.935C137.638 164.935 136.256 163.482 137.999 160.431L141.886 153.675C144.066 149.933 147.917 150.55 145.663 154.473L145.118 155.418H148.208L148.752 154.473C150.786 150.986 148.825 148.369 145.738 148.369C142.686 148.369 140.604 149.969 139.008 152.729L135.252 159.172C135.142 159.098 135.026 159.033 134.905 158.978L134.651 159.268C131.927 162.428 128.704 164.935 126.053 164.935C123.727 164.935 122.346 163.482 124.09 160.431L124.453 159.777C126.887 160.795 131.465 160.322 134.299 155.419L134.844 154.473C136.878 150.987 134.916 148.37 131.828 148.37C128.778 148.37 126.342 149.968 124.745 152.73L120.785 159.522C118.422 163.555 120.458 167.26 124.925 167.26C128.254 167.26 130.938 165.245 133.713 162.643C133.615 165.28 135.571 167.26 138.834 167.26C141.922 167.266 144.634 165.532 147.275 163.206ZM113.454 144.015L110.403 149.246V149.247C114.254 149.174 116.399 148.338 117.849 145.614C119.739 142.053 116.214 139.258 113.454 144.015ZM106.335 166.466C104.082 166.466 102.302 165.958 100.885 165.16C101.539 164.396 102.192 163.451 102.775 162.471L109.131 151.463L110.148 151.571C119.014 153.426 115.489 166.466 106.335 166.466ZM115.672 150.991C123.3 148.41 123.881 138.856 116.361 138.856C114.29 138.856 111.82 140.309 110.113 143.288L99.94 160.872C99.5203 161.627 99.0343 162.344 98.488 163.013C95.872 159.418 96.635 154.042 100.304 151.679L98.777 149.753C90.857 154.803 93.183 169.37 106.407 169.37C117.707 169.372 122.937 155.824 115.672 150.991Z" fill="white"/>
</svg>
