<svg width="189" height="46" viewBox="0 0 189 46" fill="none" xmlns="http://www.w3.org/2000/svg">
<path fill-rule="evenodd" clip-rule="evenodd" d="M60.824 37.364V45.1H40.008V0.353027H60.824V8.02303H47.624V18.827H58.159V26.497H47.624V37.363L60.824 37.364ZM82.17 45.1V37.364L71.573 37.363V0.353027H63.957V45.1H82.17ZM188.7 45.1V37.364H175.499V26.497H186.034V18.827H175.499V8.02403H188.7V0.353027H167.884V45.1H188.7ZM163.459 0.354027H155.908L149.115 21.959L142.324 0.354027H134.772V45.101H142.389V23.111L145.371 34.489H152.796L155.843 23.111V45.101H163.459V0.354027ZM123.999 8.02403H118.476V37.364H124L123.999 8.02403ZM131.679 5.08503C131.679 2.46303 129.521 0.354027 126.981 0.354027L115.557 0.355027C112.957 0.355027 110.861 2.46403 110.861 5.08503V40.37C110.861 42.927 112.957 45.1 115.557 45.1H126.981C129.521 45.1 131.679 42.927 131.679 40.37V5.08503ZM98.971 28.606L106.649 26.816V40.368C106.649 42.925 104.492 45.098 101.953 45.098H90.528C87.928 45.098 85.833 42.925 85.833 40.368V5.08403C85.833 2.46203 87.928 0.354027 90.528 0.354027H101.951C104.491 0.354027 106.648 2.46203 106.648 5.08403V14.161L98.97 15.951V8.02303H93.448V37.363H98.97L98.971 28.606ZM36.241 0.354027H28.564L27.994 37.364H27.232L22.344 0.354027H14.792L10.032 37.364H9.20803L8.57303 0.354027H0.957031L2.09903 45.1H16.632L18.599 26.626L20.567 45.1H35.037L36.241 0.354027Z" fill="#81B3D3"/>
</svg>
