<svg width="64" height="77" viewBox="0 0 64 77" fill="none" xmlns="http://www.w3.org/2000/svg">
<path fill-rule="evenodd" clip-rule="evenodd" d="M61.097 23.5011H36.312C50.125 16.6021 51.229 12.2501 50.72 9.81612C49.558 5.85312 45.028 2.79312 40.718 4.40912C35.149 6.49812 33.581 14.7971 32.074 20.7961C30.15 14.7261 28.29 6.98212 23.938 3.05912C22.677 1.92112 20.843 0.795121 18.175 1.03112C14.149 1.38712 8.373 6.41312 10.717 12.0121C12.968 17.3901 20.404 20.7891 25.295 23.5011H2.879C1.29355 23.5028 0.00715075 24.7847 0 26.3701V37.6921C0.00715075 39.2776 1.29355 40.5595 2.879 40.5611H3.153V77.0001H60.994V40.5611H61.097C62.6828 40.56 63.9698 39.2779 63.977 37.6921V26.3701C63.9698 24.7843 62.6828 23.5022 61.097 23.5011ZM42.413 6.94412C44.516 6.63412 47.395 8.24312 47.668 10.1531C48.061 12.9091 44.268 15.4081 42.582 16.5741C40.059 18.3181 37.654 19.2171 35.295 20.6291C36.179 16.9391 37.844 7.61812 42.413 6.94412ZM19.531 16.9121C17.306 15.4271 12.987 12.4811 13.091 9.14112C13.203 5.54612 18.834 2.57112 21.905 5.25512C25.761 8.62612 27.618 16.3601 29.024 21.8121C25.775 20.2731 22.696 19.0241 19.531 16.9121ZM25.503 74.0261H6.136V40.5611H25.504V74.0261H25.503ZM25.503 37.5241H3.046V26.5381H25.503V37.5241ZM35.66 37.5241V74.0271H28.486V26.5381H35.66V37.5241ZM58.011 74.0261H38.644V40.5611H58.011V74.0261ZM60.931 37.5241H38.644V26.5381H60.931V37.5241Z" fill="#81B3D2"/>
</svg>
