<svg width="17" height="17" viewBox="0 0 17 17" fill="none" xmlns="http://www.w3.org/2000/svg">
<path d="M10.95 1.14385C12.635 0.647845 13.934 1.41385 14.527 2.32284C15.2 2.09184 15.858 1.84185 16.538 1.61485C16.5249 2.30121 16.2117 2.94736 15.681 3.38284C16.366 3.55284 16.985 2.89184 16.985 2.89184C16.816 3.89184 15.979 4.67984 15.422 4.91584C15.191 11.6658 12.247 16.1328 5.34501 15.9978H4.89901C4.48901 15.9978 0.735007 15.5378 0.00100708 14.1108C2.27201 14.3068 3.89401 13.6888 4.69401 12.9338C3.73401 12.6338 2.01501 12.4568 1.71501 9.98384C2.06401 10.0898 2.27901 10.2118 2.90501 10.1028C1.70501 9.24685 0.374007 8.52984 0.448007 6.32984C0.733007 6.65784 1.51501 6.86585 1.78801 6.80185C1.08501 6.56085 -0.181993 3.44184 0.894007 1.84984C2.71201 3.70384 4.62901 5.45585 8.04601 5.62285C8.25401 3.32985 9.18301 1.79285 10.95 1.14385Z" fill="white"/>
</svg>
